<svg width="16" height="15" viewBox="0 0 16 15" fill="none" xmlns="http://www.w3.org/2000/svg">
<path d="M15 6C15 7.27153 14.3151 8.49892 13.0569 9.44264C11.7983 10.3866 10.0137 11 8 11C7.6759 11 7.35583 11.0879 7.09441 11.1796C6.81852 11.2763 6.52762 11.4065 6.24086 11.5474C5.76524 11.7809 5.23662 12.0761 4.73203 12.358C4.63352 12.413 4.53592 12.4675 4.43982 12.5209C3.8294 12.8603 3.27554 13.1586 2.81918 13.3507C2.78731 13.3641 2.75661 13.3766 2.72706 13.3884C2.75973 13.1478 2.8146 12.8591 2.88265 12.5244C2.89402 12.4685 2.90578 12.4111 2.91778 12.3527C3.00828 11.9117 3.11162 11.4081 3.15437 10.9754C3.17873 10.7289 3.19064 10.4447 3.14954 10.1706C3.11074 9.91184 3.00177 9.50771 2.64754 9.2067C1.57759 8.29752 1 7.16972 1 6C1 4.72847 1.68486 3.50108 2.94315 2.55736C4.20174 1.61341 5.98631 1 8 1C10.0137 1 11.7983 1.61341 13.0569 2.55736C14.3151 3.50108 15 4.72847 15 6ZM2.2266 13.5357C2.22663 13.5356 2.22783 13.5356 2.23012 13.5356C2.22773 13.5357 2.22658 13.5357 2.2266 13.5357Z" stroke="black" stroke-width="2"/>
</svg>
