<svg width="26" height="15" viewBox="0 0 26 15" fill="none" xmlns="http://www.w3.org/2000/svg">
<path d="M25.0303 1.62077C24.7503 1.45404 24.4316 1.36615 24.107 1.36615C23.7823 1.36615 23.4636 1.45404 23.1836 1.62077L18.9395 4.11662C17.3631 1.62077 13.8925 0.000142151 9.91054 0.000142151C8.54771 -0.00613047 7.19166 0.195223 5.88766 0.59748C2.31049 1.71728 0 4.25805 0 7.05672C0 8.89698 0.994659 10.6224 2.69066 11.907C2.93154 12.09 3.18225 12.2647 3.45755 12.4294C3.6378 12.5392 3.8246 12.6457 4.01633 12.7456C4.61623 13.0585 5.2425 13.3163 5.88766 13.516L5.93518 13.5309H5.95648C7.23916 13.9209 8.57161 14.1161 9.91054 14.11C13.8925 14.11 17.3631 12.491 18.9395 9.99182L23.1836 12.4877C23.4647 12.6519 23.7833 12.7382 24.1076 12.7379C24.4319 12.7376 24.7504 12.6508 25.0312 12.4862C25.3121 12.3215 25.5454 12.0848 25.7077 11.7997C25.87 11.5147 25.9557 11.1913 25.9562 10.862V3.24806C25.9585 2.91768 25.874 2.59266 25.7112 2.30658C25.5484 2.02049 25.3134 1.78374 25.0303 1.62077V1.62077ZM5.76148 11.4377C5.68447 11.4078 5.60745 11.3778 5.53371 11.3446C5.45997 11.3113 5.3846 11.2813 5.3125 11.2481L5.10766 11.1516L5.08472 11.1399C5.01754 11.1083 4.95199 11.075 4.88645 11.0401C4.8209 11.0051 4.77338 10.9818 4.72258 10.9502L4.55872 10.862C4.48989 10.8221 4.42271 10.7805 4.35553 10.7389C4.28834 10.6973 4.24246 10.669 4.19166 10.6308C4.05074 10.5392 3.91473 10.4427 3.78691 10.3446C3.73284 10.3046 3.68204 10.2647 3.62305 10.2231C3.50015 10.1233 3.38381 10.0218 3.27238 9.91695L3.11998 9.7672C3.06919 9.71562 3.02167 9.66404 2.97578 9.61412C2.9299 9.5642 2.88238 9.51096 2.83978 9.45938C2.79717 9.4078 2.76768 9.37286 2.73326 9.3296L2.66116 9.23475C2.63495 9.19981 2.60873 9.16487 2.58579 9.12993C2.56284 9.09499 2.5186 9.03342 2.48747 8.98517C2.45633 8.93692 2.40226 8.84873 2.36457 8.78051C2.34162 8.74466 2.32083 8.70743 2.3023 8.66903C2.29121 8.65145 2.28136 8.6331 2.2728 8.61412C2.24986 8.5692 2.22692 8.52261 2.20562 8.47768V8.46271C2.18268 8.41445 2.16138 8.36454 2.14335 8.31628C2.14335 8.30297 2.13188 8.28966 2.12696 8.27801C2.12205 8.26637 2.09911 8.20647 2.08764 8.17153C2.07617 8.13658 2.06961 8.12327 2.06142 8.09831C2.05323 8.07336 2.04012 8.03509 2.03192 8.00347C2.02373 7.97186 2.0139 7.94523 2.0057 7.91695C1.99751 7.88866 1.99423 7.87202 1.98932 7.85039C1.9844 7.82876 1.96965 7.77718 1.9631 7.74058C1.93797 7.63088 1.91937 7.51976 1.90739 7.4078C1.90739 7.3662 1.89755 7.3246 1.89592 7.28134C1.89592 7.20314 1.88608 7.11495 1.88608 7.04507C1.88608 6.97518 1.88608 6.887 1.89592 6.8088C1.89592 6.76553 1.89592 6.72394 1.90739 6.68234C1.91937 6.57038 1.93797 6.45925 1.9631 6.34956C1.9631 6.31296 1.97949 6.27635 1.98932 6.23974C1.99915 6.20314 1.99915 6.19648 2.0057 6.17319C2.01226 6.14989 2.02209 6.11495 2.03192 6.08667C2.04175 6.05838 2.04995 6.0251 2.06142 5.99515C2.06978 5.96582 2.07962 5.93694 2.09091 5.90863C2.10566 5.86703 2.12205 5.82543 2.13844 5.78384C2.15482 5.74224 2.1794 5.684 2.20234 5.63409L2.22201 5.59415C2.23675 5.56254 2.2515 5.53092 2.26789 5.49931C2.28427 5.4677 2.30394 5.42943 2.3236 5.39449C2.34327 5.35954 2.33999 5.36287 2.34818 5.3479C2.35638 5.33292 2.39406 5.26637 2.42028 5.22643C2.42393 5.21689 2.4289 5.20793 2.43503 5.19981C2.45797 5.16154 2.48091 5.12494 2.50713 5.08667C2.53335 5.0484 2.56121 5.00513 2.58906 4.9652C2.61692 4.92527 2.63986 4.89365 2.66772 4.85705L2.73982 4.76221C2.77423 4.71894 2.80864 4.67568 2.84633 4.63242C2.88402 4.58916 2.92662 4.53592 2.97087 4.48933L3.03969 4.41445L3.13637 4.31462C3.33097 4.12389 3.5379 3.94656 3.75578 3.78384C3.80166 3.74557 3.84918 3.71063 3.89834 3.67735C4.15736 3.48764 4.42831 3.31534 4.70947 3.16154C4.76628 3.12826 4.82527 3.09665 4.88645 3.0667C4.94544 3.03342 5.00771 3.00347 5.06998 2.97352L5.13224 2.94357C5.18796 2.91528 5.24367 2.89033 5.29611 2.86537L5.32724 2.85039C5.39443 2.81878 5.46161 2.79049 5.53044 2.76221C5.59926 2.73392 5.68119 2.69898 5.75821 2.66903C5.83522 2.63908 5.91224 2.60913 5.9909 2.58084C6.6443 3.12346 7.17081 3.80671 7.53236 4.58121C7.8939 5.35571 8.08145 6.20211 8.08145 7.05921C8.08145 7.91631 7.8939 8.76271 7.53236 9.53721C7.17081 10.3117 6.6443 10.995 5.9909 11.5376C5.91552 11.501 5.83686 11.4727 5.76148 11.4377ZM24.0717 10.7855L19.0329 7.83542C18.9164 7.76732 18.7869 7.72528 18.6531 7.71212C18.5193 7.69895 18.3843 7.71496 18.257 7.75907C18.1298 7.80318 18.0133 7.87437 17.9154 7.96789C17.8175 8.0614 17.7404 8.17508 17.6892 8.30131C16.7683 10.5942 13.568 12.1948 9.91054 12.1948C9.31679 12.1952 8.72377 12.1529 8.13589 12.0684C9.31897 10.673 9.96967 8.89295 9.96967 7.05172C9.96967 5.2105 9.31897 3.43041 8.13589 2.03508C8.72364 1.94915 9.31673 1.90634 9.91054 1.90696C13.568 1.90696 16.7683 3.50763 17.6892 5.79715C17.7402 5.92352 17.8172 6.03737 17.9151 6.13106C18.0129 6.22475 18.1294 6.29613 18.2566 6.3404C18.3838 6.38467 18.5189 6.40082 18.6528 6.38777C18.7867 6.37471 18.9163 6.33275 19.0329 6.2647L24.0717 3.31129V10.7855Z" fill="#0A1D42"/>
</svg>
