<svg width="20" height="20" viewBox="0 0 20 20" fill="none" xmlns="http://www.w3.org/2000/svg">
<path d="M17 2.00019H15.55C15.4306 1.6355 15.244 1.29635 15 1.00019C14.717 0.683826 14.3702 0.431105 13.9823 0.258723C13.5945 0.0863414 13.1744 -0.00177702 12.75 0.000190007H7.27C6.8422 -0.00462474 6.41832 0.0821156 6.02681 0.25459C5.63529 0.427065 5.28519 0.681284 5 1.00019C4.74885 1.29474 4.55547 1.634 4.43 2.00019H3C2.20435 2.00019 1.44129 2.31626 0.87868 2.87887C0.316071 3.44148 0 4.20454 0 5.00019V17.0002C0 17.7958 0.316071 18.5589 0.87868 19.1215C1.44129 19.6841 2.20435 20.0002 3 20.0002H17C17.7956 20.0002 18.5587 19.6841 19.1213 19.1215C19.6839 18.5589 20 17.7958 20 17.0002V5.00019C20 4.20454 19.6839 3.44148 19.1213 2.87887C18.5587 2.31626 17.7956 2.00019 17 2.00019V2.00019ZM6.52 2.34019C6.61371 2.23352 6.72906 2.14803 6.85838 2.08941C6.9877 2.03078 7.12802 2.00037 7.27 2.00019H12.73C12.872 2.00037 13.0123 2.03078 13.1416 2.08941C13.2709 2.14803 13.3863 2.23352 13.48 2.34019C13.5744 2.44519 13.6454 2.56898 13.6885 2.70342C13.7316 2.83786 13.7457 2.9799 13.73 3.12019L13.23 7.12019C13.2005 7.3641 13.0823 7.58862 12.8979 7.75093C12.7134 7.91324 12.4757 8.00196 12.23 8.00019H10.59L11.73 5.60019C11.8224 5.36484 11.8223 5.1032 11.7296 4.86796C11.6369 4.63272 11.4585 4.44133 11.2303 4.33232C11.0022 4.22332 10.7412 4.20479 10.4999 4.28047C10.2587 4.35614 10.055 4.52041 9.93 4.74019L8.37 8.00019H7.77C7.52432 8.00196 7.28659 7.91324 7.10215 7.75093C6.91771 7.58862 6.79948 7.3641 6.77 7.12019L6.27 3.12019C6.25425 2.9799 6.26839 2.83786 6.31148 2.70342C6.35457 2.56898 6.42563 2.44519 6.52 2.34019ZM18 17.0002C18 17.2654 17.8946 17.5198 17.7071 17.7073C17.5196 17.8948 17.2652 18.0002 17 18.0002H3C2.73478 18.0002 2.48043 17.8948 2.29289 17.7073C2.10536 17.5198 2 17.2654 2 17.0002V5.00019C2 4.73497 2.10536 4.48062 2.29289 4.29308C2.48043 4.10555 2.73478 4.00019 3 4.00019H4.37L4.79 7.37019C4.88069 8.10011 5.23638 8.77127 5.78946 9.25614C6.34255 9.74101 7.05449 10.0058 7.79 10.0002H12.25C12.9855 10.0058 13.6975 9.74101 14.2505 9.25614C14.8036 8.77127 15.1593 8.10011 15.25 7.37019L15.63 4.00019H17C17.2652 4.00019 17.5196 4.10555 17.7071 4.29308C17.8946 4.48062 18 4.73497 18 5.00019V17.0002ZM12 14.0002H8C7.73478 14.0002 7.48043 14.1055 7.29289 14.2931C7.10536 14.4806 7 14.735 7 15.0002C7 15.2654 7.10536 15.5198 7.29289 15.7073C7.48043 15.8948 7.73478 16.0002 8 16.0002H12C12.2652 16.0002 12.5196 15.8948 12.7071 15.7073C12.8946 15.5198 13 15.2654 13 15.0002C13 14.735 12.8946 14.4806 12.7071 14.2931C12.5196 14.1055 12.2652 14.0002 12 14.0002Z" fill="#0A1D42"/>
</svg>
