<svg width="21" height="17" viewBox="0 0 21 17" fill="none" xmlns="http://www.w3.org/2000/svg">
<path d="M16.7944 16.5657H3.45416C2.66632 16.5808 1.89792 16.3167 1.28102 15.8189C0.664114 15.3211 0.237244 14.6207 0.0737685 13.8379C-0.089707 13.0552 0.0204227 12.2391 0.38523 11.5299C0.750038 10.8207 1.34674 10.2627 2.07278 9.95175C1.94047 9.45715 1.91859 8.9388 2.00873 8.43453C2.09887 7.93025 2.29876 7.45277 2.59381 7.03694C2.88886 6.62111 3.27163 6.27742 3.71417 6.03095C4.15672 5.78448 4.64788 5.64146 5.1518 5.61231C5.00808 5.10017 4.98332 4.56115 5.07949 4.03764C5.17565 3.51414 5.39011 3.02043 5.706 2.59533C6.02189 2.17023 6.4306 1.82535 6.89998 1.58779C7.36936 1.35024 7.88662 1.22649 8.41107 1.22629H8.99934C8.9665 1.09761 8.95871 0.963658 8.9764 0.831947C9.00655 0.601971 9.11783 0.390906 9.28959 0.237913C9.46136 0.0849209 9.68195 0.000388367 9.91043 0H9.92026C12.7289 0.0282862 13.7105 1.95674 14.0808 2.68386C14.254 3.03514 14.376 3.4101 14.4429 3.79701C14.4429 3.84193 14.461 3.88519 14.4692 3.92513C14.6 4.4815 14.5944 5.06199 14.4528 5.61564C15.2976 5.67931 16.0915 6.04964 16.6895 6.6589C17.0907 7.05994 17.3844 7.5584 17.5427 8.10701C17.701 8.65562 17.7187 9.23619 17.5941 9.79368C18.2882 9.96773 18.911 10.3589 19.3744 10.9118C19.8378 11.4647 20.1184 12.1516 20.1766 12.8752V12.8752C20.2106 13.3468 20.1485 13.8205 19.9941 14.2667C19.8397 14.7128 19.5963 15.1219 19.2792 15.4682C18.9621 15.8145 18.5781 16.0908 18.1511 16.2796C17.7241 16.4684 17.2634 16.5658 16.7977 16.5657H16.7944ZM3.39025 11.5973C3.18347 11.597 2.97885 11.64 2.78919 11.7237C2.59953 11.8073 2.42892 11.9298 2.28803 12.0835C2.14713 12.2372 2.03899 12.4188 1.97038 12.6168C1.90176 12.8149 1.87414 13.0252 1.88925 13.2346C1.92596 13.6277 2.10761 13.9923 2.39781 14.2552C2.68801 14.5181 3.06533 14.6599 3.45416 14.6523H16.7944C17.0014 14.6526 17.2063 14.6095 17.3961 14.5257C17.5859 14.4418 17.7566 14.319 17.8974 14.1649C18.0382 14.0108 18.1461 13.8288 18.2143 13.6303C18.2825 13.4319 18.3096 13.2212 18.2938 13.0117V13.0117C18.2563 12.6191 18.0743 12.2554 17.7842 11.9932C17.494 11.731 17.1172 11.5896 16.7288 11.5973H16.1619C15.9826 11.5977 15.807 11.5462 15.6556 11.4488C15.5042 11.3514 15.3833 11.2121 15.3071 11.0474C15.2309 10.8827 15.2026 10.6993 15.2254 10.5188C15.2482 10.3383 15.3212 10.1681 15.436 10.0283C15.6605 9.75627 15.7845 9.41319 15.7866 9.05824C15.7857 8.8624 15.7464 8.66871 15.671 8.48846C15.5956 8.3082 15.4856 8.14499 15.3475 8.00832C15.0478 7.70004 14.6401 7.52476 14.2135 7.5208H12.7945C12.5999 7.52083 12.41 7.45968 12.2511 7.34576C12.0921 7.23184 11.9717 7.07073 11.9065 6.88456C11.8414 6.69839 11.8345 6.4963 11.887 6.30603C11.9395 6.11577 12.0487 5.94667 12.1996 5.82196C12.2275 5.79867 12.2537 5.77371 12.2783 5.74875L12.3438 5.67721C12.4913 5.49681 12.5945 5.28342 12.645 5.05461C12.6954 4.8258 12.6916 4.58809 12.6339 4.36107L12.5962 4.17804C12.563 3.96465 12.4995 3.75727 12.4077 3.5624C12.198 3.15142 11.9161 2.60732 11.3229 2.25957C11.306 2.50073 11.1997 2.72643 11.0255 2.89126C10.8513 3.0561 10.6221 3.14786 10.384 3.14809H8.41762C8.1096 3.14806 7.809 3.24404 7.55643 3.42306C7.30386 3.60209 7.1115 3.85553 7.00535 4.14914C6.89919 4.44274 6.88436 4.76236 6.96286 5.0648C7.04135 5.36724 7.20939 5.63792 7.44427 5.84027C7.59214 5.96658 7.69818 6.13601 7.74803 6.32558C7.79787 6.51515 7.78911 6.7157 7.72293 6.90005C7.65675 7.0844 7.53635 7.24362 7.37805 7.35615C7.21975 7.46868 7.0312 7.52906 6.83797 7.52912H5.34188C5.05659 7.53109 4.77772 7.61531 4.53774 7.77197C4.29776 7.92864 4.10655 8.1513 3.98636 8.41403C3.86617 8.67676 3.82196 8.96876 3.85886 9.25602C3.89577 9.54328 4.01228 9.81398 4.19483 10.0366C4.3068 10.1763 4.37768 10.3452 4.39932 10.5239C4.42097 10.7026 4.39249 10.8839 4.31718 11.047C4.24186 11.21 4.12276 11.3481 3.97357 11.4455C3.82438 11.5429 3.65116 11.5955 3.47382 11.5973H3.39025Z" fill="#0A1D42"/>
</svg>
