<svg width="20" height="20" viewBox="0 0 20 20" fill="none" xmlns="http://www.w3.org/2000/svg">
<path d="M6.71 5.70501L9 3.40501V12.995C9 13.2602 9.10536 13.5146 9.29289 13.7021C9.48043 13.8897 9.73478 13.995 10 13.995C10.2652 13.995 10.5196 13.8897 10.7071 13.7021C10.8946 13.5146 11 13.2602 11 12.995V3.40501L13.29 5.70501C13.383 5.79874 13.4936 5.87314 13.6154 5.9239C13.7373 5.97467 13.868 6.00081 14 6.00081C14.132 6.00081 14.2627 5.97467 14.3846 5.9239C14.5064 5.87314 14.617 5.79874 14.71 5.70501C14.8037 5.61205 14.8781 5.50145 14.9289 5.37959C14.9797 5.25773 15.0058 5.12703 15.0058 4.99501C15.0058 4.863 14.9797 4.7323 14.9289 4.61044C14.8781 4.48858 14.8037 4.37798 14.71 4.28501L10.71 0.285014C10.6149 0.193973 10.5028 0.122608 10.38 0.0750135C10.1365 -0.0250045 9.86346 -0.0250045 9.62 0.0750135C9.49725 0.122608 9.3851 0.193973 9.29 0.285014L5.29 4.28501C5.19676 4.37825 5.1228 4.48894 5.07234 4.61076C5.02188 4.73259 4.99591 4.86315 4.99591 4.99501C4.99591 5.12687 5.02188 5.25744 5.07234 5.37926C5.1228 5.50108 5.19676 5.61178 5.29 5.70501C5.38324 5.79825 5.49393 5.87221 5.61575 5.92267C5.73757 5.97313 5.86814 5.9991 6 5.9991C6.13186 5.9991 6.26243 5.97313 6.38425 5.92267C6.50607 5.87221 6.61676 5.79825 6.71 5.70501ZM19 9.99501C18.7348 9.99501 18.4804 10.1004 18.2929 10.2879C18.1054 10.4754 18 10.7298 18 10.995V16.995C18 17.2602 17.8946 17.5146 17.7071 17.7021C17.5196 17.8897 17.2652 17.995 17 17.995H3C2.73478 17.995 2.48043 17.8897 2.29289 17.7021C2.10536 17.5146 2 17.2602 2 16.995V10.995C2 10.7298 1.89464 10.4754 1.70711 10.2879C1.51957 10.1004 1.26522 9.99501 1 9.99501C0.734784 9.99501 0.48043 10.1004 0.292893 10.2879C0.105357 10.4754 0 10.7298 0 10.995V16.995C0 17.7907 0.316071 18.5537 0.87868 19.1163C1.44129 19.6789 2.20435 19.995 3 19.995H17C17.7956 19.995 18.5587 19.6789 19.1213 19.1163C19.6839 18.5537 20 17.7907 20 16.995V10.995C20 10.7298 19.8946 10.4754 19.7071 10.2879C19.5196 10.1004 19.2652 9.99501 19 9.99501Z" fill="black"/>
</svg>
