<svg width="21" height="20" viewBox="0 0 21 20" fill="none" xmlns="http://www.w3.org/2000/svg">
<path d="M10.0181 0.00052883C8.48598 -0.00224309 6.97372 0.347068 5.59803 1.0215C4.22234 1.69593 3.02002 2.67745 2.08387 3.89029C1.14771 5.10313 0.502756 6.51487 0.198787 8.01652C-0.105183 9.51818 -0.0600403 11.0696 0.330731 12.551C0.721502 14.0325 1.44745 15.4043 2.45254 16.5607C3.45764 17.717 4.715 18.627 6.12757 19.2203C7.54015 19.8136 9.07016 20.0744 10.5995 19.9825C12.1289 19.8907 13.6167 19.4486 14.9481 18.6905H15.0181H15.0681C16.9934 17.5945 18.5002 15.8903 19.352 13.8453C20.2039 11.8002 20.3526 9.53022 19.7747 7.39156C19.1968 5.2529 17.9252 3.36666 16.1593 2.02894C14.3934 0.691223 12.2333 -0.0222467 10.0181 0.00052883ZM11.0181 2.07053C12.7781 2.29372 14.414 3.09562 15.6685 4.35011C16.923 5.6046 17.7249 7.24051 17.9481 9.00053H11.0181V2.07053ZM10.0181 18.0005C7.9926 17.9867 6.04775 17.2051 4.57603 15.8134C3.10431 14.4217 2.21529 12.5235 2.08839 10.5019C1.96149 8.48036 2.60615 6.48592 3.89227 4.92109C5.1784 3.35626 7.01023 2.33754 9.01809 2.07053V10.0005C9.02204 10.1202 9.04569 10.2385 9.08809 10.3505V10.4305V10.5005L13.0881 17.3705C12.1178 17.7858 11.0735 18.0001 10.0181 18.0005ZM14.8481 16.3605L11.7481 11.0005H17.9481C17.8135 12.0551 17.47 13.0723 16.9377 13.9926C16.4054 14.9129 15.695 15.7179 14.8481 16.3605Z" fill="#0A1D42"/>
</svg>
