<svg width="21" height="23" viewBox="0 0 21 23" fill="none" xmlns="http://www.w3.org/2000/svg">
<path d="M13.0947 3.77949V5.71266H12.4223L11.5481 5.22077C11.1598 5.00487 10.7238 4.88889 10.2795 4.88327C9.83523 4.87764 9.39649 4.98255 9.00279 5.18855L8.01044 5.71266H7.2114V3.77949C7.2114 2.248 8.53024 1.00003 10.152 1.00003C10.9249 0.996413 11.6698 1.28931 12.2333 1.81841C12.5031 2.06924 12.7186 2.37262 12.8668 2.70988C13.0149 3.04714 13.0925 3.41114 13.0947 3.77949Z" stroke="#0A1D42" stroke-width="1.8" stroke-miterlimit="10"/>
<path d="M16.3596 9.40502V9.5876L16.293 14.3969C16.2888 14.7342 16.1963 15.0645 16.0249 15.3551C15.8534 15.6456 15.6089 15.8862 15.3157 16.053L14.8238 16.3322L14.5811 16.4718L12.519 17.636L12.126 17.8508L11.0133 18.4823C10.7227 18.6481 10.3931 18.7333 10.0586 18.7292C9.724 18.725 9.39662 18.6316 9.11022 18.4587L7.84293 17.694L7.7656 17.6446L5.73793 16.4246L5.1902 16.0959L4.87874 15.909C4.5906 15.7325 4.35335 15.484 4.19028 15.188C4.02722 14.892 3.94396 14.5587 3.94868 14.2207L4.01312 9.7981V9.73151V9.22889C4.01677 8.89142 4.10871 8.56078 4.27979 8.26987C4.45088 7.97895 4.69514 7.73789 4.98829 7.57066H5.00332L5.40499 7.34513L8.54531 5.55588L9.29065 5.12629C9.58264 4.96183 9.91303 4.87776 10.2481 4.88266C10.5832 4.88757 10.911 4.98127 11.198 5.15421L11.8424 5.54943L14.7164 7.28713L15.03 7.47615L15.4317 7.71887C15.7201 7.89441 15.9576 8.14243 16.1204 8.43826C16.2832 8.7341 16.3656 9.06741 16.3596 9.40502V9.40502Z" stroke="#0A1D42" stroke-width="1.8" stroke-miterlimit="10"/>
<path d="M4.00661 9.79808L1.83502 8.9389C1.67331 8.88046 1.52522 8.78966 1.39978 8.67206C1.27434 8.55447 1.17419 8.41253 1.10544 8.25493C1.03669 8.09733 1.00079 7.92738 0.999924 7.75543C0.999061 7.58349 1.03325 7.41318 1.10042 7.2549L1.25937 6.89189C1.41116 6.57044 1.6802 6.31925 2.01131 6.18984C2.34241 6.06043 2.71048 6.06262 3.04002 6.19596L5.61758 7.20764" stroke="#0A1D42" stroke-width="1.8" stroke-miterlimit="10"/>
<path d="M18.5676 8.9904L16.3573 9.84958V9.72715C16.3573 9.6756 16.3573 9.6262 16.3573 9.57679V9.39422C16.3634 9.0566 16.2809 8.72329 16.1181 8.42746C15.9553 8.13163 15.7178 7.8836 15.4294 7.70807L15.0277 7.46535L14.7141 7.27633L17.3582 6.23672C17.6881 6.10328 18.0565 6.10103 18.3879 6.23041C18.7194 6.3598 18.9888 6.61104 19.1411 6.93265L19.3022 7.29781C19.371 7.4565 19.4066 7.62766 19.4066 7.80066C19.4066 7.97367 19.371 8.14482 19.3022 8.30352C19.2333 8.46222 19.1325 8.60508 19.0062 8.72324C18.8798 8.84139 18.7305 8.93233 18.5676 8.9904V8.9904Z" stroke="#0A1D42" stroke-width="1.8" stroke-miterlimit="10"/>
<path d="M15.975 20.7914L15.612 20.9911C15.2998 21.163 14.934 21.2098 14.5886 21.122C14.2433 21.0343 13.9441 20.8186 13.7518 20.5186L12.1237 17.8572L12.5168 17.6424L14.5788 16.4783L14.8215 16.3386L16.4776 19.0365C16.5665 19.183 16.6241 19.3464 16.6468 19.5163C16.6696 19.6862 16.657 19.859 16.6098 20.0237C16.5626 20.1885 16.4818 20.3418 16.3726 20.4739C16.2633 20.606 16.128 20.7141 15.975 20.7914V20.7914Z" stroke="#0A1D42" stroke-width="1.8" stroke-miterlimit="10"/>
<path d="M7.84081 17.7004L6.22984 20.3381C6.03715 20.6383 5.73765 20.854 5.39192 20.9418C5.04619 21.0295 4.68005 20.9826 4.36756 20.8106L4.0067 20.6109C3.85423 20.5327 3.71947 20.424 3.61084 20.2916C3.5022 20.1591 3.42202 20.0056 3.37527 19.8408C3.32852 19.676 3.31621 19.5033 3.33911 19.3335C3.36201 19.1637 3.41963 19.0004 3.50838 18.8539L5.18808 16.1002L5.73796 16.4245L7.76563 17.6467L7.84081 17.7004Z" stroke="#0A1D42" stroke-width="1.8" stroke-miterlimit="10"/>
</svg>
