<svg width="24" height="22" viewBox="0 0 24 22" fill="none" xmlns="http://www.w3.org/2000/svg">
<path d="M19.6308 7.1183L19.4791 6.76812C19.2447 6.25539 18.8253 5.85292 18.307 5.64328C17.7887 5.43365 17.2108 5.43275 16.6919 5.64077L14.551 6.49319L13.759 6.00938C13.7605 5.98176 13.7605 5.95407 13.759 5.92644V4.04804C13.7586 3.57416 13.6622 3.10541 13.4755 2.67082C13.2889 2.23622 13.0162 1.84503 12.6742 1.52148C11.9757 0.858615 11.0522 0.492934 10.0948 0.500103C8.07684 0.500103 6.43516 2.0913 6.43516 4.04804V5.92644C6.43516 5.95102 6.43516 5.97559 6.43516 5.99863L5.68867 6.42868L3.61304 5.59623C3.09372 5.38824 2.51545 5.38931 1.99689 5.59923C1.47832 5.80915 1.05877 6.21199 0.824308 6.72511L0.672582 7.0753C0.561946 7.32699 0.503263 7.5989 0.500132 7.87437C0.497001 8.14983 0.549488 8.42304 0.654375 8.67724C0.764162 8.94268 0.925682 9.18299 1.12928 9.38381C1.33288 9.58464 1.57439 9.74185 1.83936 9.84607L3.3718 10.4604L3.30959 14.1497C3.3069 14.5412 3.38671 14.9287 3.54369 15.2866C3.70068 15.6444 3.93122 15.9642 4.21995 16.2247L3.02283 18.2014C2.879 18.4374 2.78447 18.7008 2.74507 18.9753C2.70566 19.2497 2.72222 19.5294 2.79372 19.7972C2.86718 20.0733 2.99567 20.3313 3.17127 20.5553C3.34688 20.7792 3.56589 20.9645 3.81484 21.0996L4.16533 21.2947C4.65618 21.5617 5.22864 21.631 5.76783 21.4885C6.30702 21.3461 6.77305 21.0025 7.07241 20.5267L8.17547 18.699L8.66554 19.0062C9.06831 19.2525 9.52872 19.3855 9.99923 19.3914C10.4697 19.3973 10.9333 19.276 11.342 19.04L11.694 18.8388L12.8244 20.7095C13.1252 21.1845 13.5923 21.5268 14.132 21.6678C14.6717 21.8088 15.2441 21.7381 15.7345 21.4698L16.0759 21.2793C16.3254 21.1433 16.5451 20.9575 16.7216 20.7331C16.8982 20.5087 17.028 20.2504 17.1031 19.9738C17.1747 19.7063 17.1911 19.4267 17.1515 19.1524C17.1118 18.8781 17.0168 18.6151 16.8724 18.3795L15.7117 16.4581C15.8291 16.3013 15.8895 16.1083 15.8829 15.9116C15.8763 15.715 15.8031 15.5266 15.6755 15.3781C15.5479 15.2297 15.3737 15.1302 15.1822 15.0964C14.9907 15.0626 14.7935 15.0966 14.6238 15.1925L14.1823 15.446L14.1292 15.4767L11.5999 16.925L11.5468 16.9558L10.506 17.5517C10.3584 17.6368 10.1911 17.6807 10.0213 17.6788C9.85145 17.6769 9.68516 17.6294 9.53949 17.5409L8.33933 16.8083H8.33023L5.79487 15.2478L5.49142 15.062C5.34157 14.9689 5.21817 14.838 5.13333 14.6821C5.04848 14.5262 5.00509 14.3507 5.00741 14.1727L5.06507 9.96587V9.84453V9.83071V9.33922C5.0685 9.16015 5.1184 8.98514 5.20974 8.83175C5.30108 8.67836 5.43067 8.55198 5.58549 8.46529H5.60066L9.69728 6.11229C9.80418 6.04929 9.92221 6.00807 10.0447 5.99095H10.0918H10.1661H10.2314C10.3849 6.00235 10.5335 6.05024 10.6653 6.13072L14.0033 8.16732L14.0564 8.19958L14.7164 8.60199C14.8661 8.69485 14.9892 8.82584 15.0733 8.98187C15.1575 9.13791 15.1997 9.31355 15.1959 9.49127V9.93054C15.1938 10.1413 15.2689 10.3454 15.4068 10.5034V10.5034C15.4633 10.5638 15.5282 10.6155 15.5995 10.657L15.6359 10.6785L15.6905 10.7062C15.724 10.7217 15.7584 10.7351 15.7937 10.7461C15.8266 10.7556 15.86 10.7633 15.8938 10.7691C15.9242 10.7758 15.9552 10.7794 15.9864 10.7799C15.9949 10.7814 16.0036 10.7814 16.0121 10.7799H16.0395C16.095 10.7797 16.1504 10.7741 16.2048 10.763C16.2566 10.7541 16.3074 10.7403 16.3566 10.7215L18.4701 9.87986C18.7355 9.77535 18.9775 9.61789 19.1816 9.41684C19.3857 9.21578 19.5477 8.97523 19.6581 8.7095C19.7602 8.4562 19.8104 8.18458 19.8057 7.91107C19.801 7.63756 19.7415 7.36786 19.6308 7.1183V7.1183ZM3.47346 8.65421L2.45385 8.24873C2.4006 8.22913 2.35186 8.19873 2.31063 8.15937C2.26941 8.12002 2.23657 8.07255 2.21412 8.01988C2.19624 7.97874 2.187 7.93428 2.187 7.88933C2.187 7.84438 2.19624 7.79992 2.21412 7.75878L2.36585 7.40705C2.42299 7.29807 2.51852 7.21483 2.63349 7.17385C2.74845 7.13288 2.87443 7.13717 2.98641 7.18588L4.01057 7.5929C3.75512 7.90313 3.57159 8.26735 3.47346 8.65881V8.65421ZM14.2749 17.3566L15.4295 19.2719C15.4536 19.3094 15.4696 19.3516 15.4764 19.3959C15.4832 19.4401 15.4807 19.4852 15.469 19.5284C15.4539 19.5814 15.428 19.6307 15.393 19.673C15.3579 19.7153 15.3146 19.7498 15.2657 19.7741L14.9212 19.9677C14.8129 20.0289 14.6859 20.0472 14.5649 20.0188C14.444 19.9904 14.3379 19.9174 14.2673 19.8141L13.1718 17.991L14.2749 17.3566ZM5.63708 17.1523L6.72648 17.8174L5.62797 19.639C5.55744 19.7415 5.45187 19.814 5.33166 19.8423C5.21145 19.8707 5.08512 19.853 4.97707 19.7926L4.6281 19.599C4.58 19.574 4.53744 19.5392 4.50301 19.497C4.46858 19.4548 4.443 19.4059 4.42782 19.3533C4.4165 19.3096 4.41417 19.264 4.42095 19.2194C4.42774 19.1747 4.4435 19.132 4.46727 19.0937L5.63708 17.1523ZM12.0703 4.82827L11.8518 4.70387C11.3554 4.4227 10.7971 4.27269 10.2283 4.26767C10.2157 4.26606 10.203 4.26606 10.1904 4.26767H10.0887H9.98556C9.97959 4.26617 9.97334 4.26617 9.96736 4.26767C9.92184 4.26767 9.87632 4.26767 9.8308 4.27996C9.40334 4.32405 8.98819 4.45075 8.60789 4.65318L8.1345 4.91582V4.04804C8.1345 3.03588 9.01755 2.20495 10.1069 2.20495C10.6283 2.20362 11.1304 2.40419 11.5104 2.76556C11.6854 2.9292 11.8254 3.12745 11.9217 3.34804C12.018 3.56863 12.0686 3.80687 12.0703 4.04804V4.82827ZM18.0878 8.06903C18.0641 8.12133 18.0303 8.16828 17.9883 8.20707C17.9463 8.24586 17.8971 8.2757 17.8435 8.2948L16.7814 8.71718C16.6737 8.32867 16.4819 7.96929 16.22 7.66509L17.3064 7.23196C17.4187 7.18349 17.545 7.17965 17.66 7.22121C17.775 7.26277 17.8703 7.34667 17.9269 7.4562L18.0787 7.80792C18.0976 7.84856 18.1081 7.89265 18.1097 7.93753C18.1112 7.98241 18.1038 8.02715 18.0878 8.06903V8.06903Z" fill="#0A1D42"/>
<path d="M19.3304 16.3184C19.1437 16.3175 18.9596 16.2739 18.7918 16.1909C18.5841 16.0904 18.4089 15.9322 18.2867 15.7348C18.1645 15.5374 18.1002 15.3088 18.1014 15.0758V15.0267H13.7105C13.3226 15.0265 12.9434 14.9099 12.621 14.6917C12.2985 14.4735 12.0472 14.1634 11.8988 13.8006C11.7504 13.4378 11.7115 13.0387 11.7872 12.6536C11.8628 12.2684 12.0495 11.9147 12.3237 11.6369C12.5054 11.4523 12.7216 11.3061 12.9597 11.207C13.1978 11.1078 13.453 11.0577 13.7105 11.0594H18.1014V11.0118C18.1016 10.7789 18.1665 10.5508 18.2886 10.3534C18.4108 10.1561 18.5852 9.9974 18.7921 9.89556C18.999 9.79372 19.2301 9.75279 19.4588 9.77744C19.6876 9.8021 19.9049 9.89134 20.086 10.035L22.6456 12.0701C22.7922 12.1858 22.9108 12.3339 22.9924 12.503C23.074 12.6722 23.1164 12.8579 23.1164 13.0461C23.1164 13.2343 23.074 13.4201 22.9924 13.5892C22.9108 13.7583 22.7922 13.9064 22.6456 14.0222L20.086 16.0511C19.8712 16.2241 19.6049 16.3183 19.3304 16.3184V16.3184ZM13.7165 12.7674C13.6816 12.7671 13.647 12.7739 13.6147 12.7873C13.5824 12.8008 13.553 12.8206 13.5284 12.8457C13.5025 12.8709 13.4818 12.9012 13.4677 12.9347C13.4537 12.9683 13.4464 13.0043 13.4465 13.0407C13.4465 13.1133 13.4749 13.1828 13.5256 13.2341C13.5762 13.2853 13.6449 13.3141 13.7165 13.3141H19.8008V14.1067L21.1405 13.0407L19.7947 11.981V12.772L13.7165 12.7674Z" fill="#0A1D42"/>
</svg>
