<svg width="117" height="26" viewBox="0 0 117 26" fill="none" xmlns="http://www.w3.org/2000/svg">
<path d="M0 0H4.39546L12.8574 11.4973L20.9356 0H25.0386V24.628H20.7162V6.83303L12.894 17.7223H12.2543L4.3589 6.88748V24.5826H0V0Z" fill="#010815"/>
<path d="M30.4484 9.92668C32.1688 8.96489 34.1034 8.44405 36.0775 8.41125C40.7928 8.41125 42.4742 10.8069 42.4742 14.9902V24.6272H38.9103V22.8123C38.3442 23.4978 37.6225 24.0403 36.8045 24.3952C35.9864 24.7501 35.0953 24.9074 34.2042 24.8541C31.2982 24.8541 29.2147 23.0392 29.2147 19.9993C29.2147 16.5147 31.7917 14.8632 35.0175 14.8632C36.2953 14.8506 37.5492 15.2069 38.627 15.8886C38.7367 13.2479 38.0331 11.8051 35.6571 11.8051C34.1975 11.8316 32.7654 12.205 31.481 12.894L30.4484 9.92668ZM38.627 19.963V18.3659C37.8059 17.8101 36.8229 17.539 35.8308 17.5946C34.4874 17.5946 33.2812 18.2298 33.2812 19.5637C33.2812 20.8976 34.2773 21.3786 35.5475 21.3786C36.14 21.4248 36.7345 21.3189 37.2738 21.071C37.8132 20.8231 38.2792 20.4415 38.627 19.963Z" fill="#010815"/>
<path d="M46.623 8.80154H50.6987V10.3442C51.0938 9.74957 51.6396 9.26878 52.2813 8.95018C52.923 8.63158 53.6378 8.48642 54.3539 8.5293C55.2243 8.43849 56.0995 8.65014 56.8304 9.12821L55.3866 12.9213C54.783 12.5091 54.0626 12.2993 53.3305 12.3224C52.7722 12.3049 52.2219 12.4572 51.7532 12.7589C51.2845 13.0605 50.9198 13.4971 50.7078 14.0102V24.6273H46.6322L46.623 8.80154Z" fill="#010815"/>
<path d="M58.8041 4.40039H62.8705V8.80148H68.0062V12.5946H62.8705V18.3659C62.8705 20.09 63.4371 21.2153 64.7804 21.2153C65.6771 21.1992 66.5413 20.879 67.2294 20.3078L68.4631 23.4385C67.1114 24.4604 65.4556 25.0063 63.7569 24.9902C60.1474 24.9902 58.8041 22.6672 58.8041 18.6381V4.40039Z" fill="#69AF69"/>
<path d="M114.693 23.0391C112.952 24.3752 110.798 25.0711 108.598 25.0083C103.463 25.0083 100.027 21.7052 100.027 16.7143C99.9793 15.6052 100.166 14.4985 100.574 13.4651C100.982 12.4316 101.603 11.4941 102.397 10.7126C103.191 9.93106 104.14 9.32269 105.184 8.92641C106.229 8.53012 107.345 8.35465 108.461 8.41121C109.448 8.38049 110.431 8.54858 111.35 8.90535C112.27 9.26211 113.107 9.80016 113.812 10.487C114.516 11.1739 115.074 11.9954 115.45 12.9019C115.826 13.8084 116.013 14.7811 116 15.7615C116.027 16.4985 115.944 17.2355 115.753 17.9484H104.248C104.596 20.335 106.515 21.6326 109.028 21.6326C110.644 21.6556 112.223 21.152 113.524 20.1989L114.693 23.0391ZM104.102 15.2352H111.934C111.953 14.7616 111.869 14.2895 111.69 13.8505C111.51 13.4114 111.238 13.0154 110.892 12.689C110.546 12.3626 110.134 12.1133 109.683 11.9577C109.233 11.8021 108.754 11.7439 108.278 11.7869C107.27 11.7195 106.273 12.04 105.496 12.6819C104.719 13.3238 104.22 14.238 104.102 15.2352Z" fill="#010815"/>
<path d="M74.6224 5.63443C74.9425 5.62297 75.2571 5.54783 75.5475 5.41344C75.8378 5.27906 76.0981 5.08817 76.3129 4.85208C76.5276 4.616 76.6924 4.33952 76.7976 4.03902C76.9028 3.73852 76.9462 3.42012 76.9252 3.10267C76.9288 2.79489 76.871 2.48945 76.7552 2.20394C76.6394 1.91844 76.4678 1.65853 76.2503 1.4392C76.0328 1.21988 75.7738 1.04547 75.4881 0.926032C75.2024 0.806598 74.8958 0.744501 74.5858 0.743324C74.2601 0.722289 73.9335 0.767606 73.6261 0.876488C73.3187 0.985371 73.0369 1.15552 72.7982 1.37648C72.5594 1.59745 72.3686 1.86456 72.2376 2.16141C72.1066 2.45825 72.038 2.77857 72.0362 3.10267C72.0188 3.44285 72.074 3.78285 72.1982 4.10032C72.3225 4.4178 72.513 4.70556 72.7573 4.94469C73.0016 5.18382 73.294 5.36891 73.6155 5.48779C73.9369 5.60667 74.2801 5.65664 74.6224 5.63443Z" fill="#010815"/>
<path d="M90.34 8.52018C89.4923 8.51413 88.6518 8.67547 87.8674 8.99483C87.083 9.31418 86.3704 9.78518 85.7709 10.3804V8.80149H81.6953V21.1699H76.5688V8.80149H72.4932V23.257C72.4956 23.6197 72.6417 23.9668 72.9 24.2233C73.1582 24.4798 73.5078 24.6249 73.873 24.6273H84.4002C84.7646 24.6249 85.1132 24.4794 85.37 24.2227C85.6268 23.966 85.7709 23.6189 85.7709 23.257V13.8287C86.2146 13.3537 86.7517 12.9742 87.349 12.7135C87.9463 12.4529 88.591 12.3166 89.2434 12.3133C91.5097 12.3133 92.8165 13.5111 92.8165 16.0429V24.6273H96.8921V15.3441C96.8921 10.3804 94.2329 8.52018 90.34 8.52018Z" fill="#010815"/>
</svg>
